<svg width="18" height="18" viewBox="0 0 18 18" fill="none" xmlns="http://www.w3.org/2000/svg">
<mask id="path-1-outside-1_83_10447" maskUnits="userSpaceOnUse" x="0" y="0.499268" width="18" height="17" fill="black">
<rect fill="white" y="0.499268" width="18" height="17"/>
<path fill-rule="evenodd" clip-rule="evenodd" d="M7.43726 1.93371C8.0427 2.22069 8.57656 2.63902 9 3.15827C9.826 2.14527 11.09 1.49927 12.5 1.49927C14.976 1.49927 17 3.48927 17 5.96627C17 8.21727 15.733 10.3063 14.273 12.0103C12.792 13.7383 10.976 15.2283 9.614 16.2883C9.43846 16.4248 9.2224 16.499 9 16.499C8.7776 16.499 8.56154 16.4248 8.386 16.2883C7.024 15.2283 5.208 13.7393 3.727 12.0103C2.267 10.3063 1 8.21727 1 5.96627C1 3.48927 3.024 1.49927 5.5 1.49927C6.17001 1.49832 6.83181 1.64673 7.43726 1.93371Z"/>
</mask>
<path fill-rule="evenodd" clip-rule="evenodd" d="M7.43726 1.93371C8.0427 2.22069 8.57656 2.63902 9 3.15827C9.826 2.14527 11.09 1.49927 12.5 1.49927C14.976 1.49927 17 3.48927 17 5.96627C17 8.21727 15.733 10.3063 14.273 12.0103C12.792 13.7383 10.976 15.2283 9.614 16.2883C9.43846 16.4248 9.2224 16.499 9 16.499C8.7776 16.499 8.56154 16.4248 8.386 16.2883C7.024 15.2283 5.208 13.7393 3.727 12.0103C2.267 10.3063 1 8.21727 1 5.96627C1 3.48927 3.024 1.49927 5.5 1.49927C6.17001 1.49832 6.83181 1.64673 7.43726 1.93371Z" fill="url(#paint0_linear_83_10447)"/>
<path d="M9 3.15827L8.22502 3.79026L9.00004 4.74064L9.77501 3.79022L9 3.15827ZM7.43726 1.93371L7.86558 1.03009V1.03009L7.43726 1.93371ZM14.273 12.0103L15.0323 12.661L15.0324 12.6609L14.273 12.0103ZM9.614 16.2883L10.228 17.0776L10.2282 17.0774L9.614 16.2883ZM8.386 16.2883L7.77182 17.0774L7.772 17.0776L8.386 16.2883ZM3.727 12.0103L4.48647 11.3597L4.48638 11.3596L3.727 12.0103ZM5.5 1.49927V2.49927L5.50142 2.49927L5.5 1.49927ZM9.77498 2.52629C9.25761 1.89185 8.60532 1.38073 7.86558 1.03009L7.00894 2.83734C7.48008 3.06066 7.89551 3.38619 8.22502 3.79026L9.77498 2.52629ZM12.5 0.499272C10.7788 0.499272 9.23407 1.2888 8.22499 2.52633L9.77501 3.79022C10.4179 3.00175 11.4012 2.49927 12.5 2.49927V0.499272ZM18 5.96627C18 2.92728 15.5185 0.499272 12.5 0.499272V2.49927C14.4335 2.49927 16 4.05126 16 5.96627H18ZM15.0324 12.6609C16.5402 10.9012 18 8.58097 18 5.96627H16C16 7.85358 14.9258 9.71138 13.5136 11.3596L15.0324 12.6609ZM10.2282 17.0774C11.601 16.0091 13.483 14.4687 15.0323 12.661L13.5137 11.3595C12.101 13.0078 10.351 14.4475 8.99982 15.4991L10.2282 17.0774ZM9 17.499C9.44481 17.499 9.87692 17.3507 10.228 17.0776L9 15.499L9 15.499V17.499ZM7.772 17.0776C8.12308 17.3507 8.55519 17.499 9 17.499V15.499V15.499L7.772 17.0776ZM2.96753 12.6608C4.517 14.4697 6.39929 16.0092 7.77182 17.0774L9.00018 15.4991C7.64871 14.4473 5.899 13.0088 4.48647 11.3597L2.96753 12.6608ZM0 5.96627C0 8.58097 1.45985 10.9012 2.96762 12.6609L4.48638 11.3596C3.07415 9.71138 2 7.85358 2 5.96627H0ZM5.5 0.499272C2.48147 0.499272 0 2.92728 0 5.96627H2C2 4.05126 3.56653 2.49927 5.5 2.49927V0.499272ZM7.86558 1.03009C7.12583 0.679447 6.31722 0.498112 5.49858 0.499273L5.50142 2.49927C6.0228 2.49853 6.5378 2.61402 7.00894 2.83734L7.86558 1.03009Z" fill="url(#paint1_linear_83_10447)" mask="url(#path-1-outside-1_83_10447)"/>
<defs>
<linearGradient id="paint0_linear_83_10447" x1="17" y1="9.13069" x2="1" y2="9.13069" gradientUnits="userSpaceOnUse">
<stop stop-color="#DBDBDB" stop-opacity="0.05"/>
<stop offset="0.5" stop-color="#DBDBDB"/>
</linearGradient>
<linearGradient id="paint1_linear_83_10447" x1="17" y1="9.13069" x2="1" y2="9.13069" gradientUnits="userSpaceOnUse">
<stop stop-color="#DBDBDB" stop-opacity="0.05"/>
<stop offset="0.5" stop-color="#DBDBDB"/>
</linearGradient>
</defs>
</svg>
