<svg width="22" height="21" viewBox="0 0 22 21" fill="none" xmlns="http://www.w3.org/2000/svg">
<path d="M5.61552 13.272L5.61569 13.2722C7.1738 15.0899 9.05804 16.7207 10.6883 18.0252L11.0007 18.2751L11.313 18.0252C12.9434 16.7206 14.8275 15.0886 16.3855 13.2723L16.3858 13.272C18.2282 11.1202 19.5007 8.83527 19.5007 6.62275C19.5007 4.53735 17.7929 2.83342 15.6673 2.83342C13.5418 2.83342 11.834 4.53735 11.834 6.62275C11.834 6.84377 11.7462 7.05573 11.5899 7.21201C11.4336 7.36829 11.2217 7.45609 11.0007 7.45609C10.7796 7.45609 10.5677 7.36829 10.4114 7.21201C10.2551 7.05573 10.1673 6.84377 10.1673 6.62275C10.1673 4.53735 8.45952 2.83342 6.33398 2.83342C4.20845 2.83342 2.50065 4.53735 2.50065 6.62275C2.50065 8.83664 3.77313 11.1202 5.61552 13.272ZM10.6132 3.19475L11.0007 3.66994L11.3882 3.19473C12.398 1.95632 13.9429 1.16675 15.6673 1.16675C18.6974 1.16675 21.1673 3.60108 21.1673 6.62275C21.1673 9.44224 19.5744 12.112 17.6516 14.3561C15.7111 16.6202 13.3228 18.5817 11.5122 19.9908C11.366 20.1046 11.1859 20.1663 11.0007 20.1663C10.8154 20.1663 10.6353 20.1046 10.4891 19.9908C8.67834 18.5816 6.29015 16.6215 4.34972 14.3562L4.34968 14.3561C2.42689 12.112 0.833984 9.44224 0.833984 6.62275C0.833984 3.60108 3.30391 1.16675 6.33398 1.16675L6.33469 1.16675C7.15373 1.16559 7.96273 1.34702 8.70283 1.69783C9.44294 2.04864 10.0955 2.56001 10.6132 3.19475Z" fill="url(#paint0_linear_83_10443)" stroke="url(#paint1_linear_83_10443)"/>
<defs>
<linearGradient id="paint0_linear_83_10443" x1="21.6673" y1="10.842" x2="0.333985" y2="10.842" gradientUnits="userSpaceOnUse">
<stop stop-color="#DBDBDB" stop-opacity="0.05"/>
<stop offset="0.5" stop-color="#DBDBDB"/>
</linearGradient>
<linearGradient id="paint1_linear_83_10443" x1="21.6673" y1="10.842" x2="0.333985" y2="10.842" gradientUnits="userSpaceOnUse">
<stop stop-color="#DBDBDB" stop-opacity="0.05"/>
<stop offset="0.5" stop-color="#DBDBDB"/>
</linearGradient>
</defs>
</svg>
