<svg width="54" height="23" viewBox="0 0 54 23" fill="none" xmlns="http://www.w3.org/2000/svg">
<path d="M9.01869 22.9993C7.52972 22.9993 6.22184 22.8584 5.09505 22.5767C3.98838 22.2749 3.05275 21.7417 2.28814 20.9771C1.54366 20.1923 0.980263 19.0555 0.59796 17.5665C0.235778 16.0776 0.0546875 14.1359 0.0546875 11.7414C0.0546875 9.32689 0.245839 7.37513 0.628142 5.88616C1.01044 4.37707 1.57384 3.23016 2.31832 2.44543C3.08293 1.64058 4.01857 1.08725 5.12523 0.785431C6.25202 0.483612 7.54984 0.332703 9.01869 0.332703C10.5278 0.332703 11.8457 0.483612 12.9725 0.785431C14.0993 1.08725 15.0349 1.64058 15.7794 2.44543C16.5239 3.23016 17.0772 4.37707 17.4394 5.88616C17.8217 7.37513 18.0129 9.32689 18.0129 11.7414C18.0129 14.1359 17.8217 16.0776 17.4394 17.5665C17.0772 19.0555 16.5138 20.1923 15.7492 20.9771C15.0047 21.7417 14.0691 22.2749 12.9423 22.5767C11.8357 22.8584 10.5278 22.9993 9.01869 22.9993ZM9.01869 19.6491C10.0046 19.6491 10.8296 19.5485 11.4936 19.3472C12.1777 19.1259 12.721 18.7436 13.1234 18.2003C13.5258 17.6369 13.8176 16.8422 13.9987 15.816C14.1798 14.7697 14.2703 13.4115 14.2703 11.7414C14.2703 9.97077 14.1697 8.56228 13.9685 7.51598C13.7874 6.44955 13.4957 5.6447 13.0932 5.10143C12.6908 4.53804 12.1576 4.16579 11.4936 3.9847C10.8296 3.78349 10.0046 3.68289 9.01869 3.68289C8.09311 3.68289 7.29832 3.78349 6.63432 3.9847C5.97032 4.16579 5.42705 4.53804 5.00451 5.10143C4.60208 5.6447 4.30026 6.44955 4.09905 7.51598C3.89784 8.56228 3.79723 9.97077 3.79723 11.7414C3.79723 13.4115 3.87772 14.7697 4.03869 15.816C4.21978 16.8422 4.51154 17.6369 4.91396 18.2003C5.31638 18.7436 5.8496 19.1259 6.5136 19.3472C7.19772 19.5485 8.03275 19.6491 9.01869 19.6491Z" fill="#939393"/>
<path d="M21.6139 22.8182V5.40325C21.6139 4.45755 21.7548 3.67283 22.0365 3.04907C22.3182 2.40519 22.6904 1.90216 23.1532 1.53998C23.6361 1.17779 24.1593 0.926279 24.7227 0.785431C25.3062 0.624461 25.8796 0.543976 26.443 0.543976C27.2277 0.543976 28.1533 0.554037 29.2197 0.574158C30.2862 0.574158 31.4029 0.60434 32.5699 0.664704C33.737 0.704946 34.8638 0.77537 35.9503 0.875976V3.9847H27.439C26.775 3.9847 26.2519 4.17586 25.8696 4.55816C25.5074 4.92034 25.3263 5.42337 25.3263 6.06725V10.5643L34.5921 10.7756V13.7032L25.3263 13.9145V22.8182H21.6139Z" fill="#939393"/>
<path d="M38.7386 22.8182V5.40325C38.7386 4.45755 38.8794 3.67283 39.1611 3.04907C39.4428 2.40519 39.8151 1.90216 40.2778 1.53998C40.7608 1.17779 41.2839 0.926279 41.8473 0.785431C42.4308 0.624461 43.0043 0.543976 43.5677 0.543976C44.3524 0.543976 45.278 0.554037 46.3444 0.574158C47.4108 0.574158 48.5275 0.60434 49.6946 0.664704C50.8616 0.704946 51.9884 0.77537 53.0749 0.875976V3.9847H44.5637C43.8997 3.9847 43.3765 4.17586 42.9942 4.55816C42.632 4.92034 42.4509 5.42337 42.4509 6.06725V10.5643L51.7168 10.7756V13.7032L42.4509 13.9145V22.8182H38.7386Z" fill="#939393"/>
</svg>
