<svg width="40" height="23" viewBox="0 0 40 23" fill="none" xmlns="http://www.w3.org/2000/svg">
<path d="M9.8971 22.9993C8.40813 22.9993 7.10026 22.8585 5.97347 22.5768C4.8668 22.2749 3.93117 21.7417 3.16656 20.9771C2.42207 20.1924 1.85868 19.0556 1.47638 17.5666C1.1142 16.0776 0.933105 14.1359 0.933105 11.7415C0.933105 9.32695 1.12426 7.37519 1.50656 5.88622C1.88886 4.37713 2.45226 3.23022 3.19674 2.44549C3.96135 1.64064 4.89698 1.08731 6.00365 0.785492C7.13044 0.483673 8.42826 0.332764 9.8971 0.332764C11.4062 0.332764 12.7241 0.483673 13.8509 0.785492C14.9777 1.08731 15.9133 1.64064 16.6578 2.44549C17.4023 3.23022 17.9556 4.37713 18.3178 5.88622C18.7001 7.37519 18.8913 9.32695 18.8913 11.7415C18.8913 14.1359 18.7001 16.0776 18.3178 17.5666C17.9556 19.0556 17.3923 20.1924 16.6276 20.9771C15.8832 21.7417 14.9475 22.2749 13.8207 22.5768C12.7141 22.8585 11.4062 22.9993 9.8971 22.9993ZM9.8971 19.6491C10.883 19.6491 11.708 19.5485 12.372 19.3473C13.0561 19.126 13.5994 18.7437 14.0018 18.2004C14.4043 17.637 14.696 16.8422 14.8771 15.816C15.0582 14.7697 15.1487 13.4116 15.1487 11.7415C15.1487 9.97083 15.0481 8.56234 14.8469 7.51604C14.6658 6.44961 14.3741 5.64476 13.9716 5.10149C13.5692 4.5381 13.036 4.16586 12.372 3.98477C11.708 3.78355 10.883 3.68295 9.8971 3.68295C8.97153 3.68295 8.17674 3.78355 7.51274 3.98477C6.84874 4.16586 6.30547 4.5381 5.88292 5.10149C5.4805 5.64476 5.17868 6.44961 4.97747 7.51604C4.77626 8.56234 4.67565 9.97083 4.67565 11.7415C4.67565 13.4116 4.75614 14.7697 4.91711 15.816C5.0982 16.8422 5.38995 17.637 5.79238 18.2004C6.1948 18.7437 6.72801 19.126 7.39201 19.3473C8.07613 19.5485 8.91116 19.6491 9.8971 19.6491Z" fill="white"/>
<path d="M22.7338 22.8182V0.544037H25.7218L35.8629 16.4499V0.544037H39.6054V22.8182H36.6174L26.4763 6.9124V22.8182H22.7338Z" fill="white"/>
</svg>
